<svg id="Layer_1" data-name="Layer 1" xmlns="http://www.w3.org/2000/svg" width="136.04" height="75.62" viewBox="0 0 136.04 75.62">  <title>cloud</title>  <g>    <path d="M75.62,24.65a24.92,24.92,0,0,0-.71-5.21v0h0a25.17,25.17,0,0,0-49.68,5.83l0,0A25.18,25.18,0,0,0,19.41,74.9h0a25,25,0,0,0,5.21.66l51,0v-51Z" fill="#e6007e"/>    <path d="M115.86,35.31a20.16,20.16,0,0,0-39.78-4.66h0v0a20.35,20.35,0,0,0-.57,4.17V75.61H116.3a20.19,20.19,0,0,0,4.17-.52h0a20.16,20.16,0,0,0-4.67-39.78Z" fill="#f088b6"/>    <path d="M104.48,46.7a14.48,14.48,0,0,0-28.56-3.35h0v0a14.33,14.33,0,0,0-.41,3V75.62h29.31a14,14,0,0,0,3-.37h0a14.47,14.47,0,0,0-3.35-28.56v0Z" fill="#e6007e"/>  </g></svg>